<?xml version="1.0" encoding="UTF-8" standalone="no"?>
<svg
   xmlns:dc="http://purl.org/dc/elements/1.1/"
   xmlns:cc="http://creativecommons.org/ns#"
   xmlns:rdf="http://www.w3.org/1999/02/22-rdf-syntax-ns#"
   xmlns:svg="http://www.w3.org/2000/svg"
   xmlns="http://www.w3.org/2000/svg"
   xmlns:sodipodi="http://sodipodi.sourceforge.net/DTD/sodipodi-0.dtd"
   xmlns:inkscape="http://www.inkscape.org/namespaces/inkscape"
   enable-background="new 0 0 56.693 56.693"
   height="56.693px"
   id="Layer_1"
   version="1.1"
   viewBox="0 0 56.693 56.693"
   width="56.693px"
   xml:space="preserve"
   inkscape:version="0.48.4 r9939"
   sodipodi:docname="1397233204_77-behance.svg"><metadata
     id="metadata3064"><rdf:RDF><cc:Work
         rdf:about=""><dc:format>image/svg+xml</dc:format><dc:type
           rdf:resource="http://purl.org/dc/dcmitype/StillImage" /></cc:Work></rdf:RDF></metadata><defs
     id="defs3062" /><sodipodi:namedview
     pagecolor="#ffffff"
     bordercolor="#666666"
     borderopacity="1"
     objecttolerance="10"
     gridtolerance="10"
     guidetolerance="10"
     inkscape:pageopacity="0"
     inkscape:pageshadow="2"
     inkscape:window-width="1920"
     inkscape:window-height="1032"
     id="namedview3060"
     showgrid="false"
     inkscape:zoom="15.081227"
     inkscape:cx="16.775824"
     inkscape:cy="28.3465"
     inkscape:window-x="0"
     inkscape:window-y="0"
     inkscape:window-maximized="1"
     inkscape:current-layer="Layer_1" /><g
     id="g3050"
     style="fill:#bbbbbb;fill-opacity:1"><path
       d="M38.031,27.257c-3.174,0-3.615,3.168-3.615,3.168h6.748C41.164,30.425,41.207,27.257,38.031,27.257z"
       id="path3052"
       style="fill:#bbbbbb;fill-opacity:1" /><path
       d="M22.721,30.425h-5.982v5.492h5.296c0.09,0,0.225,0.002,0.383,0c0.852-0.02,2.467-0.268,2.467-2.67   C24.885,30.396,22.721,30.425,22.721,30.425z"
       id="path3054"
       style="fill:#bbbbbb;fill-opacity:1" /><path
       d="M28.348,5.101c-13.6,0-24.625,11.023-24.625,24.623c0,13.6,11.025,24.625,24.625,24.625   c13.598,0,24.623-11.025,24.623-24.625C52.971,16.125,41.945,5.101,28.348,5.101z M33.531,20.231h8.477v2.53h-8.477V20.231z    M29.246,33.503c0,6.271-6.525,6.064-6.525,6.064h-5.982h-0.175h-4.535V19.021h4.535h0.175h5.982c3.248,0,5.812,1.794,5.812,5.47   c0,3.676-3.135,3.91-3.135,3.91C29.531,28.401,29.246,33.503,29.246,33.503z M45.104,33.167H34.457   c0,3.816,3.615,3.576,3.615,3.576c3.414,0,3.295-2.211,3.295-2.211h3.617c0,5.867-7.033,5.465-7.033,5.465   c-8.436,0-7.893-7.855-7.893-7.855s-0.008-7.893,7.893-7.893C46.268,24.249,45.104,33.167,45.104,33.167z"
       id="path3056"
       style="fill:#bbbbbb;fill-opacity:1" /><path
       d="M24.174,24.81c0-2.137-1.453-2.137-1.453-2.137h-0.77h-5.212v4.584h5.611C23.318,27.257,24.174,26.946,24.174,24.81z"
       id="path3058"
       style="fill:#bbbbbb;fill-opacity:1" /></g></svg>